<svg width="139" height="35" viewBox="0 0 139 35" fill="none" xmlns="http://www.w3.org/2000/svg">
<path d="M39.8 9.152C41.576 9.152 43.128 9.504 44.456 10.208C45.784 10.912 46.808 11.904 47.528 13.184C48.264 14.448 48.632 15.912 48.632 17.576C48.632 19.224 48.264 20.688 47.528 21.968C46.808 23.248 45.776 24.24 44.432 24.944C43.104 25.648 41.56 26 39.8 26H33.488V9.152H39.8ZM39.536 22.448C41.088 22.448 42.296 22.024 43.16 21.176C44.024 20.328 44.456 19.128 44.456 17.576C44.456 16.024 44.024 14.816 43.16 13.952C42.296 13.088 41.088 12.656 39.536 12.656H37.592V22.448H39.536ZM55.0295 14.84C55.5095 14.104 56.1095 13.528 56.8295 13.112C57.5495 12.68 58.3495 12.464 59.2295 12.464V16.808H58.1015C57.0775 16.808 56.3095 17.032 55.7975 17.48C55.2855 17.912 55.0295 18.68 55.0295 19.784V26H50.9255V12.608H55.0295V14.84ZM60.3751 21.008C60.6631 19.232 61.2151 17.92 62.0311 17.072C62.8631 16.224 63.9031 15.8 65.1511 15.8C65.6631 15.8 66.1191 15.88 66.5191 16.04C66.9351 16.184 67.4071 16.408 67.9351 16.712C68.3191 16.936 68.6471 17.104 68.9191 17.216C69.1911 17.328 69.4711 17.384 69.7591 17.384C70.6231 17.384 71.1271 16.856 71.2711 15.8H74.3191C74.0311 17.576 73.4711 18.888 72.6391 19.736C71.8071 20.584 70.7671 21.008 69.5191 21.008C69.0071 21.008 68.5431 20.928 68.1271 20.768C67.7271 20.608 67.2631 20.384 66.7351 20.096C66.3351 19.872 65.9991 19.704 65.7271 19.592C65.4711 19.48 65.1991 19.424 64.9111 19.424C64.0471 19.424 63.5351 19.952 63.3751 21.008H60.3751Z" fill="black"/>
<path d="M82.8 9.152C84.576 9.152 86.128 9.504 87.456 10.208C88.784 10.912 89.808 11.904 90.528 13.184C91.264 14.448 91.632 15.912 91.632 17.576C91.632 19.224 91.264 20.688 90.528 21.968C89.808 23.248 88.776 24.24 87.432 24.944C86.104 25.648 84.56 26 82.8 26H76.488V9.152H82.8ZM82.536 22.448C84.088 22.448 85.296 22.024 86.16 21.176C87.024 20.328 87.456 19.128 87.456 17.576C87.456 16.024 87.024 14.816 86.16 13.952C85.296 13.088 84.088 12.656 82.536 12.656H80.592V22.448H82.536ZM100.022 26.192C98.7095 26.192 97.5255 25.912 96.4695 25.352C95.4295 24.792 94.6055 23.992 93.9975 22.952C93.4055 21.912 93.1095 20.696 93.1095 19.304C93.1095 17.928 93.4135 16.72 94.0215 15.68C94.6295 14.624 95.4615 13.816 96.5175 13.256C97.5735 12.696 98.7575 12.416 100.07 12.416C101.382 12.416 102.566 12.696 103.622 13.256C104.678 13.816 105.51 14.624 106.118 15.68C106.726 16.72 107.03 17.928 107.03 19.304C107.03 20.68 106.718 21.896 106.094 22.952C105.486 23.992 104.646 24.792 103.574 25.352C102.518 25.912 101.334 26.192 100.022 26.192ZM100.022 22.64C100.806 22.64 101.47 22.352 102.014 21.776C102.574 21.2 102.854 20.376 102.854 19.304C102.854 18.232 102.582 17.408 102.038 16.832C101.51 16.256 100.854 15.968 100.07 15.968C99.2695 15.968 98.6055 16.256 98.0775 16.832C97.5495 17.392 97.2855 18.216 97.2855 19.304C97.2855 20.376 97.5415 21.2 98.0535 21.776C98.5815 22.352 99.2375 22.64 100.022 22.64ZM113.311 14.504C113.711 13.88 114.263 13.376 114.967 12.992C115.671 12.608 116.495 12.416 117.439 12.416C118.543 12.416 119.543 12.696 120.439 13.256C121.335 13.816 122.039 14.616 122.551 15.656C123.079 16.696 123.343 17.904 123.343 19.28C123.343 20.656 123.079 21.872 122.551 22.928C122.039 23.968 121.335 24.776 120.439 25.352C119.543 25.912 118.543 26.192 117.439 26.192C116.511 26.192 115.687 26 114.967 25.616C114.263 25.232 113.711 24.736 113.311 24.128V32.384H109.207V12.608H113.311V14.504ZM119.167 19.28C119.167 18.256 118.879 17.456 118.303 16.88C117.743 16.288 117.047 15.992 116.215 15.992C115.399 15.992 114.703 16.288 114.127 16.88C113.567 17.472 113.287 18.28 113.287 19.304C113.287 20.328 113.567 21.136 114.127 21.728C114.703 22.32 115.399 22.616 116.215 22.616C117.031 22.616 117.727 22.32 118.303 21.728C118.879 21.12 119.167 20.304 119.167 19.28ZM138.12 19.088C138.12 19.472 138.096 19.872 138.048 20.288H128.76C128.824 21.12 129.088 21.76 129.552 22.208C130.032 22.64 130.616 22.856 131.304 22.856C132.328 22.856 133.04 22.424 133.44 21.56H137.808C137.584 22.44 137.176 23.232 136.584 23.936C136.008 24.64 135.28 25.192 134.4 25.592C133.52 25.992 132.536 26.192 131.448 26.192C130.136 26.192 128.968 25.912 127.944 25.352C126.92 24.792 126.12 23.992 125.544 22.952C124.968 21.912 124.68 20.696 124.68 19.304C124.68 17.912 124.96 16.696 125.52 15.656C126.096 14.616 126.896 13.816 127.92 13.256C128.944 12.696 130.12 12.416 131.448 12.416C132.744 12.416 133.896 12.688 134.904 13.232C135.912 13.776 136.696 14.552 137.256 15.56C137.832 16.568 138.12 17.744 138.12 19.088ZM133.92 18.008C133.92 17.304 133.68 16.744 133.2 16.328C132.72 15.912 132.12 15.704 131.4 15.704C130.712 15.704 130.128 15.904 129.648 16.304C129.184 16.704 128.896 17.272 128.784 18.008H133.92Z" fill="#159CFD"/>
<mask id="mask0_1_27" style="mask-type:alpha" maskUnits="userSpaceOnUse" x="-2" y="8" width="22" height="18">
<ellipse cx="8.66667" cy="17" rx="10.6667" ry="9" fill="#159CFD"/>
</mask>
<g mask="url(#mask0_1_27)">
<path d="M5.33335 28.25C11.2 18.8 7.7778 11.1875 5.33335 8.5625V6.3125L14 2.375L28.6667 19.8125C18.4445 26.5625 -0.533314 37.7 5.33335 28.25Z" fill="#159CFD"/>
</g>
<mask id="mask1_1_27" style="mask-type:alpha" maskUnits="userSpaceOnUse" x="8" y="8" width="22" height="18">
<ellipse cx="19.3333" cy="17" rx="10.6667" ry="9" fill="#159CFD"/>
</mask>
<g mask="url(#mask1_1_27)">
<path d="M16 28.25C21.8667 18.8 18.4445 11.1875 16 8.5625V6.3125L24.6667 2.375L39.3334 19.8125C29.1111 26.5625 10.1334 37.7 16 28.25Z" fill="black"/>
</g>
</svg>
